<svg width="100" height="100" viewBox="0 0 100 100" fill="none" xmlns="http://www.w3.org/2000/svg">
<g clip-path="url(#clip0_3039_40)">
<path d="M50.0484 100.097C77.6894 100.097 100.097 77.6894 100.097 50.0484C100.097 22.4074 77.6894 0 50.0484 0C22.4074 0 0 22.4074 0 50.0484C0 77.6894 22.4074 100.097 50.0484 100.097Z" fill="black"/>
<path d="M68.4407 50.1452C68.1503 51.4037 67.3759 52.5654 66.4078 53.3398C65.9238 52.9526 65.4398 52.5654 64.9557 52.1781C65.827 51.5973 66.5046 50.726 66.6982 49.6612C66.9887 48.5963 66.7951 47.5315 66.2142 46.5634C65.0526 44.6273 62.5356 44.0465 60.5995 45.2081L59.7283 43.7561C57.3081 40.6583 53.4359 38.7222 49.1765 38.7222C42.4969 38.7222 36.8822 43.8529 36.2045 50.3388C36.2045 50.8229 36.1077 51.2101 36.1077 51.6941C36.1077 55.5663 37.7534 58.9545 40.464 61.3746C42.7873 63.4076 45.7883 64.666 49.0797 64.666H49.1765C51.7902 64.5692 53.8231 62.5363 53.8231 59.9226C53.8231 57.3088 51.6934 55.1791 49.0797 55.1791C48.9829 55.1791 48.9829 55.1791 48.886 55.1791C47.5308 55.2759 46.3691 56.4376 46.3691 57.8896C46.3691 59.3417 47.5308 60.6002 49.0797 60.6002C50.1445 60.6002 51.1126 60.0194 51.4998 59.0513C51.5966 59.4385 51.5966 59.729 51.5966 60.1162C51.5966 60.697 51.4998 61.181 51.403 61.7619C50.7253 62.1491 49.9509 62.4395 49.0797 62.4395C46.6595 62.4395 44.6266 60.4066 44.6266 57.9865C44.6266 56.6312 45.3042 55.3727 46.2723 54.5015C47.0467 53.9206 48.0148 53.5334 49.0797 53.5334C52.6615 53.5334 55.5656 56.4376 55.5656 60.0194C55.5656 63.6012 52.7583 66.5053 49.1765 66.5053C49.1765 66.5053 49.1765 66.5053 49.0797 66.5053C49.0797 66.5053 49.0797 66.5053 48.9829 66.5053C40.8512 66.4085 34.3652 59.8258 34.3652 51.6941C34.3652 51.5973 34.3652 51.5005 34.3652 51.4037C34.462 43.3688 41.0448 36.8829 49.1765 36.8829C54.1135 36.8829 58.6634 39.2062 61.3739 42.9816C63.7941 42.4008 66.4078 43.3688 67.7631 45.5954C68.5375 47.0474 68.828 48.5963 68.4407 50.1452Z" fill="#D30676"/>
<path d="M64.7618 47.2411C64.7618 47.9187 64.2778 48.4027 63.6001 48.4027C62.9225 48.4027 62.4385 47.9187 62.4385 47.2411C62.4385 46.5634 62.9225 46.0794 63.6001 46.0794C64.2778 46.0794 64.7618 46.5634 64.7618 47.2411Z" fill="#D30676"/>
<path d="M53.0495 11.1326C52.8559 11.4231 52.5655 11.7135 52.1783 11.9071C51.791 12.1007 51.307 12.1975 50.6294 12.1975H49.2741V15.1985H48.0156L48.2092 7.74445H50.7262C51.307 7.74445 51.791 7.84125 52.1783 8.03486C52.5655 8.22847 52.8559 8.51889 53.0495 8.80931C53.2431 9.09972 53.3399 9.48694 53.3399 9.97097C53.3399 10.455 53.2431 10.7454 53.0495 11.1326ZM51.6942 10.939C51.8878 10.7454 52.0815 10.455 52.0815 10.0678C52.0815 9.29333 51.5974 8.80931 50.7262 8.80931H49.3709V11.2294H50.7262C51.1134 11.2294 51.5006 11.1326 51.6942 10.939Z" fill="white"/>
<path d="M56.7275 8.32527L55.8562 12.9719C55.7594 13.5528 55.8562 13.94 56.0498 14.3272C56.2435 14.7144 56.6307 14.908 57.2115 15.0048C57.6955 15.1017 58.1796 15.0048 58.47 14.8112C58.7604 14.6176 59.0508 14.2304 59.1476 13.6496L60.0189 8.9061L61.1805 9.09971L60.3093 13.7464C60.2125 14.3272 59.9221 14.8112 59.6316 15.1985C59.3412 15.5857 58.8572 15.7793 58.3732 15.8761C57.8891 15.9729 57.4051 15.9729 56.9211 15.8761C56.4371 15.7793 55.953 15.5857 55.5658 15.2953C55.1786 15.0048 54.8882 14.6176 54.6946 14.1336C54.501 13.6496 54.501 13.1655 54.5978 12.5847L55.469 7.93805L56.7275 8.32527Z" fill="white"/>
<path d="M66.699 15.7793C66.7958 16.1665 66.7958 16.6505 66.6021 17.0377C66.5053 17.425 66.2149 17.6186 65.9245 17.909C65.6341 18.1994 65.2469 18.1994 64.8596 18.1994C64.4724 18.1994 63.9884 18.1026 63.6012 17.909L60.8906 16.7473L63.698 9.87415L66.3117 10.939C66.7958 11.1326 67.183 11.3262 67.3766 11.7134C67.5702 12.1007 67.8606 12.2943 67.8606 12.6815C67.9574 12.9719 67.8606 13.3591 67.7638 13.6496C67.5702 14.0368 67.3766 14.3272 67.0862 14.5208C66.7958 14.7144 66.4085 14.8112 66.0213 14.7144C66.4085 15.0048 66.6021 15.3921 66.699 15.7793ZM64.9564 17.1346C65.2469 17.0377 65.4405 16.8441 65.6341 16.4569C65.7309 16.1665 65.7309 15.7793 65.6341 15.4889C65.4405 15.1984 65.2469 15.0048 64.8596 14.8112L63.4076 14.2304L62.5363 16.3601L64.0852 16.9409C64.3756 17.1346 64.666 17.1346 64.9564 17.1346ZM63.698 13.3591L65.0533 13.94C65.4405 14.1336 65.7309 14.1336 66.0213 14.0368C66.3117 13.94 66.5053 13.7464 66.6021 13.4559C66.699 13.1655 66.699 12.8751 66.6021 12.5847C66.5053 12.2943 66.2149 12.1007 65.8277 12.0039L64.4724 11.423L63.698 13.3591Z" fill="white"/>
<path d="M68.3448 19.2643L70.4745 20.5227L69.9905 21.394L66.7959 19.4579L70.6681 13.1655L71.733 13.8432L68.3448 19.2643Z" fill="white"/>
<path d="M76.0891 16.7473L71.636 22.6525L70.668 21.878L75.121 15.9729L76.0891 16.7473Z" fill="white"/>
<path d="M76.8636 19.4579C77.5412 19.2643 78.122 19.3611 78.7997 19.4579C79.4773 19.5547 79.9613 19.9419 80.4454 20.5228C81.0262 21.1036 81.3166 21.6844 81.5102 22.4589C81.7038 23.1365 81.607 23.911 81.2198 24.5886L80.155 23.5237C80.3486 23.1365 80.3486 22.7493 80.2518 22.3621C80.155 21.9749 79.9614 21.5876 79.6709 21.2972C79.2837 20.91 78.9933 20.7164 78.5093 20.6196C78.122 20.5228 77.638 20.5228 77.2508 20.6196C76.7668 20.7164 76.3795 21.0068 75.9923 21.394C75.6051 21.7812 75.3147 22.1685 75.2179 22.6525C75.1211 23.1365 75.0243 23.5237 75.1211 24.0078C75.2179 24.395 75.4115 24.7822 75.7987 25.1694C76.0891 25.4598 76.4764 25.7503 76.8636 25.8471C77.2508 25.9439 77.638 25.9439 78.0252 25.8471L79.0901 26.9119C78.4125 27.2023 77.638 27.2991 76.9604 27.1055C76.2827 26.9119 75.6051 26.5247 75.1211 26.0407C74.637 25.5567 74.3466 24.9758 74.153 24.2982C73.9594 23.6205 73.9594 23.0397 74.153 22.3621C74.3466 21.6844 74.637 21.1036 75.2179 20.6196C75.6051 19.9419 76.1859 19.6515 76.8636 19.4579Z" fill="white"/>
<path d="M84.8016 25.9439L78.7997 30.3001L78.1221 29.3321L84.124 24.9758L84.8016 25.9439Z" fill="white"/>
<path d="M87.8994 32.1394C87.8994 32.8171 87.7057 33.3979 87.4153 33.9787C87.0281 34.5596 86.5441 34.9468 85.8664 35.334C85.1888 35.7212 84.5112 35.818 83.9303 35.818C83.2527 35.818 82.6719 35.6244 82.1878 35.1404C81.7038 34.6564 81.2198 34.1724 80.8326 33.4947L79.6709 31.365L86.2537 27.9768L87.4153 30.1065C87.7057 30.7842 87.8994 31.4618 87.8994 32.1394ZM83.1559 34.4628C83.7367 34.6564 84.5112 34.5596 85.1888 34.1724C85.9632 33.7851 86.4473 33.3011 86.6409 32.6235C86.8345 31.9458 86.7377 31.2682 86.3505 30.4937L85.7696 29.4289L80.9294 31.9458L81.5102 33.0107C81.9942 33.7851 82.5751 34.2692 83.1559 34.4628Z" fill="white"/>
<path d="M85.4792 41.6263L84.7048 38.7222L83.0591 38.6254L82.6719 37.3669L90.5131 37.9477L90.9003 39.303L84.5112 43.8528L84.2208 42.5944L85.4792 41.6263ZM86.3505 41.0455L89.3515 38.9158L85.6728 38.7222L86.3505 41.0455Z" fill="white"/>
<path d="M91.8678 48.5964C91.5774 49.1772 91.1902 49.6612 90.7062 50.0484C90.1253 50.4357 89.5445 50.6293 88.7701 50.6293C87.9956 50.7261 87.318 50.5325 86.7371 50.2421C86.1563 49.9516 85.6723 49.5644 85.3819 48.9836C85.0914 48.4028 84.8978 47.7251 84.801 46.9507L84.6074 44.5305L91.9646 44.0465L92.1582 46.4666C92.255 47.3379 92.1582 48.0155 91.8678 48.5964ZM86.6403 48.8868C87.1244 49.274 87.802 49.4676 88.6732 49.4676C89.5445 49.3708 90.2221 49.1772 90.6094 48.5964C91.0934 48.1123 91.287 47.4347 91.1902 46.5634L91.0934 45.4018L85.6723 45.789L85.7691 46.9507C85.8659 47.8219 86.1563 48.4996 86.6403 48.8868Z" fill="white"/>
<path d="M91.1902 53.727L89.0605 53.5334L88.7701 56.0503L87.802 55.9535L88.0924 53.4366L85.8659 53.1462L85.5755 56.0503L84.6074 55.9535L85.0914 51.8877L92.4487 52.6621L91.9646 56.728L90.9966 56.6312L91.1902 53.727Z" fill="white"/>
<path d="M89.3514 65.2469L88.3834 65.4405V63.8916L87.4153 65.0532L86.7377 64.2788L87.9962 63.4076L86.4473 63.1171L86.7377 62.1491L88.093 62.8267L87.6089 61.3746L88.6738 61.181V62.7299L89.6418 61.5682L90.3195 62.3427L89.061 63.3108L90.6099 63.6012L90.3195 64.5692L88.9642 63.7948L89.3514 65.2469Z" fill="#D30676"/>
<path d="M82.1877 74.2497C82.5749 74.3466 82.9621 74.2498 83.3493 74.0561C83.7365 73.8625 84.027 73.5721 84.2206 73.2817C84.511 72.8945 84.6078 72.4105 84.7046 72.0232C84.8014 71.636 84.6078 71.152 84.4142 70.7648C84.2206 70.3775 83.8333 69.9903 83.4461 69.6999C82.9621 69.4095 82.5749 69.2159 82.0909 69.2159C81.6068 69.2159 81.2196 69.2159 80.8324 69.4095C80.4452 69.6031 80.0579 69.8935 79.8643 70.2807C79.4771 70.8616 79.3803 71.3456 79.3803 71.9264C79.4771 72.5073 79.7675 72.9913 80.1548 73.3785L81.7036 71.0552L82.4781 71.636L80.1548 75.0242L79.3803 74.4434C78.9931 74.0561 78.6059 73.5721 78.4122 73.0881C78.2186 72.6041 78.1218 71.9264 78.2186 71.3456C78.3154 70.7648 78.5091 70.1839 78.8963 69.6031C79.2835 69.0223 79.7675 68.635 80.3484 68.3446C80.9292 68.0542 81.6068 67.9574 82.1877 67.9574C82.8653 67.9574 83.4461 68.2478 84.1238 68.635C84.7046 69.0223 85.1886 69.5063 85.479 70.1839C85.7695 70.7648 85.8663 71.4424 85.8663 72.12C85.7695 72.7977 85.5759 73.3785 85.1886 73.9593C84.7046 74.637 84.2206 75.121 83.5429 75.4114C82.8653 75.7018 82.1877 75.7986 81.4132 75.605L82.1877 74.2497Z" fill="white"/>
<path d="M73.3782 75.9923L76.6696 76.9603L77.3472 76.2827L75.3143 74.153L76.1856 73.2817L81.3163 78.606L79.4769 80.3485C79.0897 80.7358 78.7025 81.0262 78.2185 81.123C77.8313 81.2198 77.444 81.3166 77.0568 81.123C76.6696 81.0262 76.3792 80.8326 76.0888 80.5421C75.7015 80.2517 75.5079 79.8645 75.5079 79.3805C75.4111 78.8965 75.6047 78.4124 75.8951 77.9284L72.4102 76.9603L73.3782 75.9923ZM78.0249 76.9603L77.0568 77.9284C76.7664 78.2188 76.5728 78.606 76.5728 78.8965C76.5728 79.1869 76.6696 79.4773 76.96 79.7677C77.2504 80.0581 77.5408 80.1549 77.8313 80.1549C78.1217 80.1549 78.5089 79.9613 78.7993 79.6709L79.7674 78.7028L78.0249 76.9603Z" fill="white"/>
<path d="M68.6349 81.4134L71.2486 79.6709L70.8614 78.122L71.9262 77.4443L73.7655 85.092L72.6039 85.8664L66.3115 81.1229L67.3764 80.4453L68.6349 81.4134ZM69.4093 81.9942L72.3135 84.2207L71.4422 80.6389L69.4093 81.9942ZM73.0879 87.4153L74.4432 85.1888L74.9272 85.9632L73.6687 88.3834L73.0879 87.4153Z" fill="white"/>
<path d="M64.3753 89.9323L63.9881 89.061L66.8922 87.8025L66.021 85.7696L63.7944 86.7377L63.4072 85.8664L65.6338 84.8984L64.3753 81.8974L65.5369 81.4134L68.4411 88.1898L64.3753 89.9323Z" fill="white"/>
<path d="M61.4715 90.7067L59.3418 83.6399L60.5035 83.2527L62.6332 90.3195L61.4715 90.7067Z" fill="white"/>
<path d="M58.7603 89.7386C58.4699 90.3194 58.0826 90.9003 57.5986 91.2875C57.1146 91.6747 56.4369 91.9651 55.7593 92.0619C54.9849 92.1587 54.2104 92.0619 53.6296 91.7715C52.952 91.4811 52.4679 90.9971 52.0807 90.3194L53.5328 90.1258C53.8232 90.5131 54.1136 90.7067 54.404 90.9003C54.7913 90.9971 55.1785 90.9971 55.6625 90.9971C56.1465 90.9003 56.5338 90.8035 56.921 90.5131C57.3082 90.2226 57.5018 89.9322 57.6954 89.4482C57.889 88.9642 57.889 88.4801 57.7922 87.9961C57.6954 87.5121 57.5018 87.0281 57.3082 86.6408C57.0178 86.2536 56.7274 85.9632 56.2433 85.8664C55.8561 85.6728 55.3721 85.6728 54.8881 85.6728C54.404 85.7696 54.1136 85.8664 53.7264 86.1568C53.436 86.3504 53.1456 86.7376 53.0488 87.1249L51.5967 87.3185C51.7903 86.544 52.1775 85.9632 52.6615 85.4792C53.2424 84.9951 53.92 84.7047 54.6945 84.6079C55.3721 84.5111 56.0497 84.6079 56.6306 84.8015C57.2114 84.9951 57.7922 85.3824 58.1794 85.9632C58.5667 86.4472 58.8571 87.1249 58.9539 87.8025C59.1475 88.4801 59.0507 89.1578 58.7603 89.7386Z" fill="white"/>
<path d="M45.6916 86.1569L48.7894 86.3505L49.467 84.8984L50.7255 84.9952L47.5309 92.1588L46.1756 92.062L44.0459 84.5112L45.3044 84.608L45.6916 86.1569ZM45.982 87.2217L46.9501 90.7067L48.4021 87.4153L45.982 87.2217Z" fill="white"/>
<path d="M35.1399 89.4482L34.9463 88.4802H36.4952L35.3335 87.5121L36.108 86.8345L36.9792 88.093L37.2696 86.5441L38.2377 86.8345L37.56 88.1898L39.0121 87.6089L39.2057 88.6738L37.6568 88.7706L38.8185 89.7386L38.0441 90.4163L37.076 89.061L36.7856 90.6099L35.8175 90.3195L36.4952 88.9642L35.1399 89.4482Z" fill="#D30676"/>
<path d="M30.2035 85.576C29.6226 85.8664 28.945 85.9632 28.2674 85.9632C27.5897 85.8664 27.0089 85.6728 26.4281 85.2856C25.7504 84.8015 25.2664 84.3175 24.976 83.6399C24.6856 82.9622 24.5888 82.2846 24.7824 81.5102L26.1376 82.2846C26.0408 82.6718 26.1376 83.059 26.3313 83.4463C26.5249 83.8335 26.8153 84.1239 27.1057 84.3175C27.4929 84.6079 27.9769 84.7047 28.3642 84.8015C28.8482 84.8015 29.2354 84.7047 29.6226 84.5111C30.0099 84.3175 30.3971 83.9303 30.6875 83.5431C30.9779 83.059 31.1715 82.6718 31.1715 82.1878C31.2683 81.7038 31.1715 81.3165 30.9779 80.9293C30.7843 80.5421 30.4939 80.1549 30.1067 79.9613C29.7194 79.6709 29.3322 79.574 28.945 79.574C28.5578 79.574 28.1706 79.6709 27.7833 79.8645L26.5249 79.09C27.1057 78.606 27.7833 78.4124 28.5578 78.5092C29.2354 78.5092 30.0099 78.7996 30.5907 79.1868C31.1715 79.5741 31.5587 80.0581 31.946 80.6389C32.2364 81.2197 32.3332 81.8974 32.3332 82.4782C32.3332 83.1558 32.0428 83.7367 31.6556 84.4143C31.3651 84.8015 30.8811 85.2856 30.2035 85.576Z" fill="white"/>
<path d="M25.7495 75.605C25.9431 76.2827 25.9431 76.8635 25.7495 77.5411C25.5559 78.2188 25.1687 78.7996 24.6846 79.2836C24.2006 79.7677 23.523 80.0581 22.9421 80.2517C22.2645 80.4453 21.6837 80.3485 21.006 80.1549C20.3284 79.9613 19.8444 79.5741 19.3603 79.09C18.8763 78.606 18.5859 78.0252 18.3923 77.3475C18.1987 76.6699 18.1987 76.0891 18.3923 75.4114C18.5859 74.7338 18.9731 74.2498 19.4571 73.6689C19.9412 73.1849 20.6188 72.8945 21.1996 72.7009C21.8773 72.5073 22.4581 72.6041 23.1357 72.7977C23.8134 72.9913 24.2974 73.3785 24.7814 73.8625C25.2655 74.3466 25.5559 74.9274 25.7495 75.605ZM22.8453 73.8625C22.4581 73.7657 21.9741 73.7657 21.4901 73.8625C21.006 73.9593 20.6188 74.2498 20.2316 74.637C19.8444 75.0242 19.5539 75.4114 19.3603 75.8955C19.1667 76.3795 19.1667 76.7667 19.2635 77.1539C19.3603 77.5411 19.5539 77.9284 19.9412 78.3156C20.2316 78.7028 20.6188 78.8964 21.1028 79.09C21.4901 79.1868 21.9741 79.1868 22.4581 79.09C22.9421 78.9932 23.3294 78.7028 23.7166 78.3156C24.1038 77.9284 24.3942 77.5411 24.5878 77.0571C24.7814 76.5731 24.7814 76.1859 24.6846 75.7018C24.5878 75.3146 24.3942 74.8306 24.007 74.5402C23.6198 74.2498 23.2326 74.0562 22.8453 73.8625Z" fill="white"/>
<path d="M11.3262 67.3766L17.8121 63.698L18.393 64.8597L13.9399 67.3766L19.4578 66.8926L19.845 67.667L16.5537 72.1201L21.0067 69.6031L21.5875 70.668L15.1016 74.3466L14.5208 73.0881L18.2962 67.9574L12.0038 68.5383L11.3262 67.3766Z" fill="white"/>
<path d="M9.97038 63.5044L14.5202 62.1491C15.1011 61.9555 15.3915 61.7619 15.5851 61.3746C15.7787 60.9874 15.7787 60.6002 15.6819 60.1162C15.4883 59.6321 15.2947 59.2449 14.9075 59.0513C14.5202 58.8577 14.133 58.8577 13.5522 58.9545L9.00233 60.3098L8.71191 59.1481L13.2618 57.7928C13.8426 57.5992 14.3266 57.5992 14.8107 57.696C15.2947 57.7928 15.6819 58.0833 15.9723 58.4705C16.2627 58.8577 16.5532 59.2449 16.65 59.8258C16.8436 60.3098 16.8436 60.7938 16.7468 61.2778C16.65 61.7619 16.4563 62.1491 16.1659 62.5363C15.8755 62.9235 15.3915 63.2139 14.8107 63.3107L10.2608 64.666L9.97038 63.5044Z" fill="white"/>
<path d="M15.1014 49.758L15.1982 51.0165L9.97067 55.0823L15.4886 54.6951L15.5854 55.9535L8.22817 56.5344L8.13136 55.1791L13.3589 51.1133L7.84095 51.5005L7.74414 50.3388L15.1014 49.758Z" fill="white"/>
<path d="M7.9375 46.757L15.2947 47.241V48.4027L7.9375 47.9187V46.757Z" fill="white"/>
<path d="M9.77701 44.5305C9.29298 44.0465 8.90576 43.5625 8.71215 42.8848C8.51854 42.2072 8.51854 41.6264 8.61534 40.9487C8.80896 40.1743 9.09937 39.4966 9.5834 39.0126C10.0674 38.5286 10.7451 38.1414 11.5195 38.0446L11.2291 39.4966C10.8419 39.5934 10.4546 39.7871 10.1642 40.0775C9.87382 40.3679 9.6802 40.7551 9.6802 41.1423C9.5834 41.6264 9.5834 42.1104 9.6802 42.4976C9.77701 42.8848 10.0674 43.272 10.4546 43.5625C10.8419 43.8529 11.2291 44.0465 11.8099 44.1433C12.3908 44.2401 12.8748 44.2401 13.262 44.1433C13.6492 44.0465 14.0364 43.7561 14.4237 43.4657C14.7141 43.1752 14.9077 42.6912 15.0045 42.304C15.1013 41.82 15.1013 41.4327 15.0045 41.0455C14.9077 40.6583 14.6173 40.3679 14.3269 40.0775L14.6173 38.6254C15.2949 39.0126 15.6821 39.5934 15.9726 40.2711C16.263 40.9487 16.263 41.7232 16.0694 42.4008C15.8758 43.0784 15.5853 43.6593 15.1981 44.1433C14.7141 44.6273 14.2301 45.0145 13.5524 45.2082C12.8748 45.4018 12.294 45.4018 11.5195 45.305C10.9387 45.305 10.261 45.0145 9.77701 44.5305Z" fill="white"/>
<path d="M17.6184 33.4947L16.3599 36.302L17.5216 37.4637L17.0376 38.6254L11.4229 33.1075L12.0037 31.849L19.8449 32.5266L19.3609 33.6883L17.6184 33.4947ZM16.5535 33.3979L12.9717 33.1075L15.5855 35.6244L16.5535 33.3979Z" fill="white"/>
<path d="M21.8776 27.396C21.9744 27.0087 21.8776 26.6215 21.684 26.2343L22.5552 25.0726C22.9425 25.6535 23.1361 26.3311 23.0393 26.9119C22.9425 27.4928 22.8457 28.1704 22.4584 28.848L22.8457 29.1385C23.1361 28.848 23.3297 28.5576 23.7169 28.5576C24.1041 28.5576 24.2977 28.5576 24.5882 28.7512C24.8786 28.9448 24.9754 29.2353 25.0722 29.5257C25.169 29.8161 24.9754 30.2033 24.7818 30.4937L23.9105 31.6554L23.2329 31.1714L23.9105 30.2033C24.0073 30.0097 24.1041 29.9129 24.1041 29.8161C24.1041 29.7193 24.1041 29.6225 23.9105 29.5257C23.8137 29.4289 23.7169 29.4289 23.6201 29.4289C23.5233 29.4289 23.4265 29.6225 23.3297 29.7193L22.9425 30.2033L21.9744 29.5257C21.5872 30.0097 21.0064 30.3001 20.5223 30.4937C19.9415 30.6873 19.3607 30.7842 18.7798 30.6873C18.199 30.5905 17.6182 30.3001 17.0373 29.9129C16.4565 29.5257 16.0693 28.9448 15.7789 28.364C15.4884 27.7832 15.3916 27.1055 15.4885 26.4279C15.5853 25.7503 15.8757 25.1694 16.2629 24.5886C16.7469 23.911 17.3278 23.5237 18.0054 23.2333C18.683 22.9429 19.3607 22.9429 20.1351 23.1365L19.2639 24.2982C18.8766 24.2014 18.4894 24.2982 18.1022 24.395C17.715 24.5886 17.4246 24.7822 17.1341 25.1694C16.8437 25.5567 16.6501 25.9439 16.6501 26.4279C16.5533 26.9119 16.6501 27.2992 16.8437 27.6864C17.0373 28.0736 17.3278 28.4608 17.8118 28.848C18.2958 29.1385 18.683 29.3321 19.1671 29.4289C19.6511 29.5257 20.0383 29.4289 20.4255 29.2353C20.8127 29.0417 21.2 28.7512 21.4904 28.364C21.684 28.1704 21.8776 27.7832 21.8776 27.396Z" fill="white"/>
<path d="M20.426 17.8122C20.426 17.5218 20.6196 17.2314 20.8132 17.0378C20.91 16.941 21.0068 16.8442 21.1036 16.8442C21.2004 16.8442 21.2972 16.7474 21.4908 16.7474C21.5876 16.7474 21.6844 16.7474 21.7812 16.6506C21.878 16.6506 21.9748 16.5538 21.9748 16.5538C22.0716 16.457 22.0716 16.3601 22.1684 16.2633C22.1684 16.1665 22.1684 16.0697 22.0716 15.8761L22.5557 15.3921C22.7493 15.7793 22.8461 16.0697 22.8461 16.3601C22.8461 16.6506 22.6525 16.941 22.4589 17.1346C22.3621 17.3282 22.2653 17.425 22.1684 17.425C22.0716 17.425 21.878 17.5218 21.7812 17.5218C21.5876 17.5218 21.4908 17.5218 21.4908 17.6186C21.394 17.6186 21.394 17.7154 21.2972 17.7154C21.2004 17.8122 21.2004 17.909 21.1036 18.0058C21.0068 18.1026 21.1036 18.1994 21.2004 18.3931L20.7164 18.8771C20.4259 18.4899 20.3291 18.1026 20.426 17.8122ZM27.3959 21.5876L25.0726 23.6206L25.6534 25.0726L24.6854 25.9439L21.878 18.5867L22.9429 17.6186L29.8161 21.4908L28.848 22.3621L27.3959 21.5876ZM26.5247 21.0068L23.3301 19.1675L24.6854 22.5557L26.5247 21.0068Z" fill="white"/>
<path d="M31.5585 20.0387C30.8809 20.0387 30.3 19.8451 29.7192 19.5547C29.1384 19.1675 28.6543 18.6835 28.3639 18.1026C27.9767 17.425 27.8799 16.8442 27.8799 16.1665C27.8799 15.4889 28.0735 14.9081 28.4607 14.3272C28.8479 13.7464 29.332 13.3592 29.9128 12.9719C30.4936 12.6815 31.1713 12.4879 31.8489 12.4879C32.5265 12.4879 33.1074 12.6815 33.6882 12.9719C34.269 13.3592 34.7531 13.8432 35.0435 14.424C35.4307 15.1017 35.5275 15.6825 35.5275 16.3601C35.5275 17.0378 35.3339 17.6186 34.9467 18.1994C34.5595 18.7803 34.0754 19.1675 33.4946 19.5547C32.817 19.8451 32.2361 20.0387 31.5585 20.0387ZM33.8818 17.6186C34.0754 17.2314 34.269 16.8442 34.1722 16.3601C34.1722 15.8761 34.0754 15.3921 33.785 14.9081C33.4946 14.424 33.2042 14.0368 32.817 13.8432C32.4297 13.5528 32.0425 13.456 31.5585 13.456C31.0745 13.456 30.6872 13.5528 30.2032 13.7464C29.816 13.94 29.4288 14.3272 29.2352 14.6176C29.0415 15.0049 28.8479 15.3921 28.9447 15.8761C28.9447 16.3601 29.0415 16.8442 29.332 17.3282C29.6224 17.8122 29.9128 18.1994 30.3 18.393C30.6872 18.6835 31.0745 18.7803 31.5585 18.7803C32.0425 18.7803 32.4297 18.6835 32.9138 18.4899C33.3978 18.393 33.6882 18.0058 33.8818 17.6186Z" fill="white"/>
<path d="M41.723 8.80928L42.4007 9.48692L41.1422 10.3582L42.6911 10.5518L42.4007 11.5198L40.9486 10.8422L41.5294 12.2943L40.5614 12.4879L40.3677 10.939L39.3997 12.1975L38.7221 11.423L39.9805 10.5518L38.4316 10.3582L38.7221 9.39011L40.1741 10.0678L39.6901 8.61567L40.6582 8.42206L40.755 9.97095L41.723 8.80928Z" fill="#D30676"/>
</g>
<defs>
<clipPath id="clip0_3039_40">
<rect width="100" height="100" fill="white"/>
</clipPath>
</defs>
</svg>
